<svg xmlns="http://www.w3.org/2000/svg" viewBox="0 0 512 512" width="512" height="512">
  <!-- Background circle -->
  <circle cx="256" cy="256" r="243" fill="none" stroke="#1f2937" stroke-width="4"/>
  
  <!-- Journal/Book pages -->
  <path d="M 155 128 L 155 384 Q 155 408 179 408 L 333 408 Q 357 408 357 384 L 357 128 Q 357 104 333 104 L 179 104 Q 155 104 155 128 Z" 
        fill="none" stroke="#1f2937" stroke-width="6" stroke-linejoin="round"/>
  
  <!-- Checkmarks for consistency -->
  <g stroke="#1f2937" stroke-width="6" stroke-linecap="round" stroke-linejoin="round" fill="none">
    <path d="M 192 192 L 210 220 L 245 180"/>
    <path d="M 192 272 L 210 300 L 245 260"/>
    <path d="M 192 352 L 210 380 L 245 340"/>
  </g>
  
  <!-- Right side accent lines -->
  <line x1="272" y1="192" x2="325" y2="192" stroke="#1f2937" stroke-width="5" stroke-linecap="round"/>
  <line x1="272" y1="272" x2="325" y2="272" stroke="#1f2937" stroke-width="5" stroke-linecap="round"/>
  <line x1="272" y1="352" x2="325" y2="352" stroke="#1f2937" stroke-width="5" stroke-linecap="round"/>
</svg>